<?xml version="1.0" standalone="no"?>
<!DOCTYPE svg PUBLIC "-//W3C//DTD SVG 1.1//EN" "http://www.w3.org/Graphics/SVG/1.1/DTD/svg11.dtd" >
<svg xmlns="http://www.w3.org/2000/svg" xmlns:xlink="http://www.w3.org/1999/xlink" version="1.1" viewBox="-10 0 1222 2048">
   <path fill="currentColor"
d="M828 1468c45.8525 -128.272 75.9805 -256.206 100 -360c24.0195 -103.793 36.0293 -187.023 36.0293 -249.692c0 -19.583 -9.83887 -61.3486 -10.5684 -75.0576s-2.5498 -25.459 -5.46094 -35.25c-61.1377 7.83301 -121.051 12 -172 12
c-43.6699 0 -84.793 -4.89453 -123.368 -14.6865s-94.1826 -20.2852 -126.207 -37.9111c-11.4248 21.5977 -55.7109 142.232 -94.4248 204.598c-45.7021 73.623 -93.0508 141.249 -144 200l-84 -79c43.6699 -50.918 70.5146 -83.4336 112.001 -150.997
c41.4863 -67.5645 83.6084 -151.626 119.999 -228.003c-37.8477 -35.25 -69.8721 -72.9482 -96.0752 -113.097c-26.2012 -40.1455 -50.4893 -66.7324 -66.501 -103.94l100.439 -96.9375c13.1006 39.167 30.2041 74.417 51.3115 105.75
c21.1084 31.335 50.0801 72.7246 74.8252 96.2246c26.2021 -64.626 43.8145 -144.203 64.9209 -210.788s39.666 -133.17 55.6787 -199.755l87.4004 38.543c-16.0127 62.667 -25.4365 115.457 -48 184s-62.8877 189.499 -92 260c80 40 132 32 205.61 47.5
c44.1572 9.29785 88.4326 -1.46875 129.92 -4.40723c41.4873 -2.93652 86.9766 -9.30078 136.47 -19.0928c5.82324 7.83301 10.5537 23.9893 14.1914 48.4688c3.63965 24.4795 8.20605 17.8096 14.0283 29.5586l-17.4688 49.9395
c11.6455 95.959 9.62793 208.114 -10.751 306.033c-2.91113 9.79199 -9.46191 39.168 -19.6523 88.1279c-10.1895 48.959 -21.2734 75.8477 -28.5518 111.097c-7.27832 35.251 -17.1035 76.377 -29.4756 123.378c-32.6924 89.8818 -68.1758 199.527 -131.019 269.184
c-35.167 38.9795 -62.8662 46.1084 -119.513 48.8984c-47.1924 2.32422 -78.876 3.67773 -155.789 -16.6846c-22.1367 -51.6455 -19.9922 -111.769 27.5303 -125.234c37.6514 -10.6689 88.9619 20.0869 124.575 8.92773c57.5781 -18.042 109.492 -82.5928 119.895 -111.693z
" />
</svg>
