<?xml version="1.0" encoding="UTF-8" standalone="no"?>
<svg
   xmlns:dc="http://purl.org/dc/elements/1.1/"
   xmlns:cc="http://creativecommons.org/ns#"
   xmlns:rdf="http://www.w3.org/1999/02/22-rdf-syntax-ns#"
   xmlns:svg="http://www.w3.org/2000/svg"
   xmlns="http://www.w3.org/2000/svg"
   xmlns:sodipodi="http://sodipodi.sourceforge.net/DTD/sodipodi-0.dtd"
   xmlns:inkscape="http://www.inkscape.org/namespaces/inkscape"
   inkscape:version="1.0rc1 (09960d6f05, 2020-04-09)"
   sodipodi:docname="uni0806_Imperial-Aramaic.svg"
   id="svg4"
   viewBox="-10 0 1138 2048"
   version="1.1">
  <metadata
     id="metadata10">
    <rdf:RDF>
      <cc:Work
         rdf:about="">
        <dc:format>image/svg+xml</dc:format>
        <dc:type
           rdf:resource="http://purl.org/dc/dcmitype/StillImage" />
      </cc:Work>
    </rdf:RDF>
  </metadata>
  <defs
     id="defs8" />
  <sodipodi:namedview
     inkscape:current-layer="svg4"
     inkscape:window-maximized="1"
     inkscape:window-y="-9"
     inkscape:window-x="-9"
     inkscape:cy="928.46356"
     inkscape:cx="-53.356834"
     inkscape:zoom="0.2734375"
     showgrid="false"
     id="namedview6"
     inkscape:window-height="707"
     inkscape:window-width="1024"
     inkscape:pageshadow="2"
     inkscape:pageopacity="0"
     guidetolerance="10"
     gridtolerance="10"
     objecttolerance="10"
     borderopacity="1"
     bordercolor="#666666"
     pagecolor="#ffffff" />
  <path
     sodipodi:nodetypes="ccccccsccccccccccscscsccccsccccscscsccc"
     inkscape:connector-curvature="0"
     id="path2"
     d="m 434.94,1727.57 -63.7207,-170.69 c 103.00906,-140.6346 293.18196,-113.4995 419.6736,-140.6694 28.95776,-4.4018 61.4487,-19.9012 71.64171,-44.2015 6.34344,-16.1075 5.20486,-41.1077 0.42079,-56.9841 C 840.1852,1212.2836 798.23875,935.60314 777.07303,806.74415 719.97865,875.71862 654.15275,921.3578 596.6585,959.15408 c -41.58422,27.33714 -89.63235,53.27702 -153.34349,87.59532 -20.17713,8.4308 -42.1074,13.1769 -62.87079,12.9972 -64.172,1.7857 -73.19507,-60.66723 -86.39844,-107.06052 -22.86253,-80.9317 -36.94583,-168.83882 -43.88137,-212.59535 -18.8799,-119.146 -18.8799,-119.146 -41.2998,-212.096 C 185.57407,426.48534 144.47649,329.35419 61.364614,321.81533 l 48.379896,-185.899 c 79.61733,16.67304 103.83796,56.76408 135.64227,125.77994 32.45322,71.10338 42.94615,145.8855 53.15743,205.45986 127.36491,-104.70365 204.30449,-153.33456 362.96322,-183.59762 27.08304,-5.13485 47.2358,-3.56529 62.94206,3.4231 27.41893,12.19985 41.28681,40.91403 54.81803,79.30291 13.82076,40.65821 25.8878,83.19968 36.1094,123.01708 13.81282,53.8067 24.25565,102.63894 31.10215,135.12723 17.50354,56.23517 32.78969,112.69142 46.38149,169.38638 30.26917,126.26057 52.13509,253.70499 71.37482,382.52819 8.03619,54.172 16.23019,113.2461 25.30413,181.1177 1.82015,44.8009 -9.66493,81.0409 -28.54415,109.6205 -39.02885,55.3199 -101.84516,79.2146 -158.35264,99.2609 -77.3898,27.3134 -185.0706,33.9872 -261.18297,66.6064 -48.20328,20.6583 -70.60297,60.4843 -106.51914,94.6223 z M 416.24521,943.27898 c 24.64135,2.21475 45.44011,-8.21137 93.69644,-43.43228 50.6516,-37.70851 115.79892,-91.59307 158.96141,-135.63333 47.79014,-48.76202 55.44953,-90.3786 53.26165,-133.12766 -18.8799,-98.0205 -18.8799,-98.0205 -37.7598,-167.311 -18.8799,-69.2905 -18.8799,-69.29 -31.8604,-69.29 -22.15273,2.68428 -43.2308,6.2586 -63.34254,10.76216 -109.22467,24.45833 -189.94818,76.32436 -259.52548,161.87981 12.92139,123.31898 33.55628,235.63842 62.00763,334.00415 3.29645,12.84843 16.51984,40.58334 24.56109,42.14815 z"
     fill="currentColor" />
</svg>
